<svg xmlns="http://www.w3.org/2000/svg" width="150" height="31.6" viewBox="0 0 150 31.6">
  <g id="Groupe_2159" data-name="Groupe 2159" transform="translate(-183 -29)">
    <path id="Tracé_1" data-name="Tracé 1" d="M0,0,1.7,16.5l18.1-4.9L21,0Z" transform="translate(183 29)" fill="#5b862f"/>
    <path id="Tracé_2" data-name="Tracé 2" d="M3.2,3,5.3,23.3l22.2-6L28.9,3Z" transform="translate(183 29)" fill="#91b623"/>
    <path id="Tracé_3" data-name="Tracé 3" d="M7.5,6.2,10,31.6l25.9-7.7L37.5,6.2Z" transform="translate(183 29)" fill="#b7cb00"/>
    <g id="Groupe_1" data-name="Groupe 1" transform="translate(183 29)">
      <path id="Tracé_4" data-name="Tracé 4" d="M44.1,19.6a10.059,10.059,0,0,0,4.6,1.1c1.9,0,2.9-.8,2.9-2,0-1.1-.9-1.8-3.1-2.6-3-1.1-5-2.8-5-5.4,0-3.1,2.6-5.5,6.9-5.5a11.154,11.154,0,0,1,4.7.9l-.9,3.3a7.759,7.759,0,0,0-3.8-.9c-1.8,0-2.7.8-2.7,1.8,0,1.2,1,1.7,3.4,2.6,3.2,1.2,4.7,2.9,4.7,5.5,0,3.1-2.3,5.7-7.4,5.7A13.455,13.455,0,0,1,43.2,23Z" fill="#fff"/>
      <path id="Tracé_5" data-name="Tracé 5" d="M60.7,10.6l2,6.5c.2.8.5,1.8.7,2.5h.1c.2-.7.4-1.7.6-2.5l1.6-6.5H70l-3.1,8.7c-1.9,5.3-3.2,7.4-4.7,8.7a7.346,7.346,0,0,1-4,1.8l-.9-3.5a8.274,8.274,0,0,0,1.8-.7,4.612,4.612,0,0,0,1.7-1.7,1.421,1.421,0,0,0,.2-.6,1.078,1.078,0,0,0-.2-.7L55.9,10.4h4.8Z" fill="#fff"/>
      <path id="Tracé_6" data-name="Tracé 6" d="M70.8,20.3a7.639,7.639,0,0,0,3.6,1c1.2,0,1.8-.4,1.8-1.1s-.4-1-1.9-1.5c-2.8-.9-3.8-2.4-3.8-4,0-2.5,2.1-4.4,5.4-4.4a8.843,8.843,0,0,1,3.7.8l-.7,2.8a7.254,7.254,0,0,0-2.9-.7c-1,0-1.6.4-1.6,1.1,0,.6.5,1,2.1,1.5,2.5.9,3.6,2.1,3.6,4.1,0,2.5-1.9,4.3-5.7,4.3a10.187,10.187,0,0,1-4.3-.9Z" fill="#fff"/>
      <path id="Tracé_7" data-name="Tracé 7" d="M86.6,7v3.6h3v3h-3v4.8c0,1.6.4,2.3,1.6,2.3a4.121,4.121,0,0,0,1.2-.1v3.1a5.11,5.11,0,0,1-2.6.5,4.821,4.821,0,0,1-3.1-1.1c-.8-.8-1.1-2.1-1.1-3.9V13.8H80.8v-3h1.8V8.1Z" fill="#fff"/>
      <path id="Tracé_8" data-name="Tracé 8" d="M102.5,20.7a25.837,25.837,0,0,0,.2,3.2H99l-.2-1.3h-.1a4.643,4.643,0,0,1-3.8,1.6,4.1,4.1,0,0,1-4.3-4.1c0-3.4,3.1-5.1,7.8-5.1v-.2c0-.7-.4-1.7-2.4-1.7a8.064,8.064,0,0,0-3.7,1l-.8-2.6a10.918,10.918,0,0,1,5.2-1.2c4.4,0,5.8,2.6,5.8,5.7Zm-4-3.1c-2.2,0-3.9.5-3.9,2.1a1.47,1.47,0,0,0,1.6,1.6,2.194,2.194,0,0,0,2.1-1.5,1.7,1.7,0,0,0,.1-.7V17.6Z" fill="#fff"/>
      <path id="Tracé_9" data-name="Tracé 9" d="M149.8,20.7a25.835,25.835,0,0,0,.2,3.2h-3.7l-.2-1.3H146a4.643,4.643,0,0,1-3.8,1.6,4.1,4.1,0,0,1-4.3-4.1c0-3.4,3.1-5.1,7.8-5.1v-.2c0-.7-.4-1.7-2.4-1.7a8.064,8.064,0,0,0-3.7,1l-.8-2.6a10.918,10.918,0,0,1,5.2-1.2c4.4,0,5.8,2.6,5.8,5.7Zm-4-3.1c-2.2,0-3.9.5-3.9,2.1a1.47,1.47,0,0,0,1.6,1.6,2.194,2.194,0,0,0,2.1-1.5,1.7,1.7,0,0,0,.1-.7V17.6Z" fill="#fff"/>
      <path id="Tracé_10" data-name="Tracé 10" d="M105.2,14.9c0-1.7-.1-3-.1-4.2h3.6l.2,1.8h.1a4.657,4.657,0,0,1,4.1-2.1c2.7,0,4.7,1.8,4.7,5.7v7.8h-4.1V16.5c0-1.7-.6-2.9-2.1-2.9a2.331,2.331,0,0,0-2.1,1.5,3.4,3.4,0,0,0-.1,1v7.6h-4.1V14.9Z" fill="#fff"/>
      <path id="Tracé_11" data-name="Tracé 11" d="M130.5,23.6a8.561,8.561,0,0,1-3.7.6c-4.3,0-7-2.6-7-6.8,0-3.9,2.7-7,7.6-7a9.587,9.587,0,0,1,3.1.5l-.7,3.1a5.925,5.925,0,0,0-2.3-.4,3.439,3.439,0,0,0-3.6,3.7,3.437,3.437,0,0,0,3.6,3.7,8,8,0,0,0,2.4-.4Z" fill="#fff"/>
      <rect id="Rectangle_3" data-name="Rectangle 3" width="4.1" height="2.8" transform="translate(132.2 10.6)" fill="#fff"/>
      <rect id="Rectangle_4" data-name="Rectangle 4" width="4.1" height="9.5" transform="translate(132.2 14.6)" fill="#fff"/>
    </g>
  </g>
</svg>
