<?xml version="1.0" encoding="UTF-8" standalone="no"?>
<!-- Created with Inkscape (http://www.inkscape.org/) -->

<svg
   width="52.697521mm"
   height="15.544519mm"
   viewBox="0 0 52.697521 15.544519"
   version="1.1"
   id="svg1"
   xml:space="preserve"
   inkscape:version="1.2.2 (b0a8486541, 2022-12-01)"
   sodipodi:docname="logo-eiffage_energie_systemes.svg"
   xmlns:inkscape="http://www.inkscape.org/namespaces/inkscape"
   xmlns:sodipodi="http://sodipodi.sourceforge.net/DTD/sodipodi-0.dtd"
   xmlns="http://www.w3.org/2000/svg"
   xmlns:svg="http://www.w3.org/2000/svg"><sodipodi:namedview
     id="namedview1"
     pagecolor="#ffffff"
     bordercolor="#000000"
     borderopacity="0.25"
     inkscape:showpageshadow="2"
     inkscape:pageopacity="0.0"
     inkscape:pagecheckerboard="0"
     inkscape:deskcolor="#d1d1d1"
     inkscape:document-units="mm"
     inkscape:zoom="5.0628666"
     inkscape:cx="112.09065"
     inkscape:cy="54.317054"
     inkscape:window-width="2256"
     inkscape:window-height="1504"
     inkscape:window-x="0"
     inkscape:window-y="0"
     inkscape:window-maximized="1"
     inkscape:current-layer="g1"
     showgrid="false"><inkscape:page
       x="9.7054929e-08"
       y="2.3105581e-06"
       width="52.697521"
       height="15.544519"
       id="page1"
       margin="0"
       bleed="0" /><inkscape:page
       x="109.35824"
       y="-63.944412"
       width="210.00015"
       height="280.00009"
       id="page2"
       margin="0"
       bleed="0" /></sodipodi:namedview><defs
     id="defs1"><clipPath
       clipPathUnits="userSpaceOnUse"
       id="clipPath8"><path
         d="M 28.489,28.63 H 566.646 V 566.362 H 28.489 Z"
         transform="matrix(0.00183786,0,0,-0.00122542,-0.04688721,0.8645568)"
         id="path8" /></clipPath><clipPath
       clipPathUnits="userSpaceOnUse"
       id="clipPath15"><path
         d="M 0,0 H 595.276 V 793.701 H 0 Z"
         transform="translate(-161.89701,-753.09052)"
         id="path15" /></clipPath><clipPath
       clipPathUnits="userSpaceOnUse"
       id="clipPath26"><path
         d="M 0,0 H 595.276 V 793.701 H 0 Z"
         transform="translate(-91.1221,-724.27892)"
         id="path26" /></clipPath><clipPath
       clipPathUnits="userSpaceOnUse"
       id="clipPath28"><path
         d="M 0,0 H 595.276 V 793.701 H 0 Z"
         transform="translate(-101.44,-720.89422)"
         id="path28" /></clipPath><clipPath
       clipPathUnits="userSpaceOnUse"
       id="clipPath32"><path
         d="M 0,0 H 595.276 V 793.701 H 0 Z"
         transform="translate(-119.3272,-725.68712)"
         id="path32" /></clipPath><clipPath
       clipPathUnits="userSpaceOnUse"
       id="clipPath35"><path
         d="M 0,0 H 595.276 V 793.701 H 0 Z"
         transform="translate(-131.7273,-725.68712)"
         id="path35" /></clipPath><clipPath
       clipPathUnits="userSpaceOnUse"
       id="clipPath41"><path
         d="M 0,0 H 595.276 V 793.701 H 0 Z"
         transform="translate(-165.4482,-725.68712)"
         id="path41" /></clipPath></defs><g
     inkscape:label="Calque 1"
     inkscape:groupmode="layer"
     id="layer1"
     transform="translate(-110.64176,-63.944414)" /><g
     id="g1"
     inkscape:groupmode="layer"
     inkscape:label="1"
     transform="matrix(0.26458333,0,0,0.26458335,109.35825,-63.944414)"><rect
       style="fill:#ffffff;stroke:none;stroke-width:0.382965;stop-color:#000000"
       id="rect514"
       width="198.97777"
       height="58.556961"
       x="-413.13104"
       y="241.87114" /><g
       id="g2"
       transform="translate(-453.13985,202.46673)"><g
         id="group-MC0" /><path
         id="path10"
         d="M 49.888,736.565 H 29.863 v 4.621 h 20.025 z"
         style="fill:#ed1c24;fill-opacity:1;fill-rule:nonzero;stroke:none"
         transform="matrix(1.3333333,0,0,-1.3333333,0,1058.268)" /><path
         id="path11"
         d="M 49.888,744.267 H 29.863 v 4.621 h 20.025 z"
         style="fill:#ed1c24;fill-opacity:1;fill-rule:nonzero;stroke:none"
         transform="matrix(1.3333333,0,0,-1.3333333,0,1058.268)" /><path
         id="path12"
         d="M 49.888,751.969 H 29.863 v 4.621 h 20.025 z"
         style="fill:#ed1c24;fill-opacity:1;fill-rule:nonzero;stroke:none"
         transform="matrix(1.3333333,0,0,-1.3333333,0,1058.268)" /><path
         id="path13"
         d="m 0,0 -4.621,-4.621 h 20.487 v -20.487 l 4.621,4.621 V 0 Z"
         style="fill:#ed1c24;fill-opacity:1;fill-rule:nonzero;stroke:none"
         transform="matrix(1.3333333,0,0,-1.3333333,49.469867,39.212933)" /><path
         id="path14"
         d="m 0,0 c -1.24,0.935 -3.131,1.608 -4.935,1.608 -4.791,0 -7.404,-4.962 -7.404,-9.638 0,-2.484 0.574,-6.508 4.69,-6.508 0.615,0 1.123,0.065 1.639,0.218 l 0.942,6.667 h 5.225 l -1.096,-7.758 c -2.464,-1.003 -4.604,-1.395 -7.194,-1.395 -5.9,0 -9.489,2.984 -9.489,8.722 0,6.035 4.184,11.862 12.398,11.862 2.157,0 3.971,-0.449 5.866,-1.376 z"
         style="fill:#231f20;fill-opacity:1;fill-rule:nonzero;stroke:none"
         transform="matrix(1.3333333,0,0,-1.3333333,215.86267,54.147333)"
         clip-path="url(#clipPath15)" /><path
         id="path16"
         d="M 0,0 2.829,20.024 H -2.398 L -5.225,0 Z"
         style="fill:#231f20;fill-opacity:1;fill-rule:nonzero;stroke:none"
         transform="matrix(1.3333333,0,0,-1.3333333,118.75627,76.1816)" /><path
         id="path17"
         d="m 0,0 0.305,2.156 h -11.65 l -2.829,-20.024 h 11.65 l 0.305,2.157 h -6.423 l 1.026,7.271 h 5.96 l 0.273,1.926 h -5.96 L -6.424,0 Z"
         style="fill:#231f20;fill-opacity:1;fill-rule:nonzero;stroke:none"
         transform="matrix(1.3333333,0,0,-1.3333333,109.03293,52.357867)" /><path
         id="path18"
         d="m 0,0 0.305,2.156 h -11.651 l -2.828,-20.024 h 11.65 l 0.305,2.157 h -6.423 l 1.025,7.271 h 5.961 l 0.272,1.926 h -5.96 L -6.424,0 Z"
         style="fill:#231f20;fill-opacity:1;fill-rule:nonzero;stroke:none"
         transform="matrix(1.3333333,0,0,-1.3333333,238.5824,52.357867)" /><path
         id="path19"
         d="m 0,0 0.305,2.156 h -11.65 l -2.827,-20.024 h 5.225 l 1.333,9.428 h 5.96 l 0.271,1.926 h -5.96 L -6.423,0 Z"
         style="fill:#231f20;fill-opacity:1;fill-rule:nonzero;stroke:none"
         transform="matrix(1.3333333,0,0,-1.3333333,144.90427,52.357867)" /><path
         id="path20"
         d="m 0,0 0.305,2.156 h -11.651 l -2.828,-20.024 h 5.227 l 1.33,9.428 h 5.961 l 0.272,1.926 h -5.96 L -6.424,0 Z"
         style="fill:#231f20;fill-opacity:1;fill-rule:nonzero;stroke:none"
         transform="matrix(1.3333333,0,0,-1.3333333,166.13107,52.357867)" /><path
         id="path21"
         d="M 0,0 3.539,6.242 4.864,0 Z m 6.63,-8.318 h 4.932 L 7.369,11.715 H 3.765 L -7.561,-8.318 h 2.844 l 3.625,6.392 h 6.365 z"
         style="fill:#231f20;fill-opacity:1;fill-rule:nonzero;stroke:none"
         transform="matrix(1.3333333,0,0,-1.3333333,173.33987,65.0912)" /><path
         id="path22"
         d="m 0,0 h 1.293 l -1.341,-1.369 h -0.894 z m -2.654,-1.825 h 4.46 V -2.91 h -3.262 v -1.654 h 3.091 v -1.083 h -3.091 v -1.827 h 3.433 v -1.084 h -4.631 z"
         style="fill:#231f20;fill-opacity:1;fill-rule:nonzero;stroke:none"
         transform="matrix(1.3333333,0,0,-1.3333333,94.705467,86.324667)" /><path
         id="path23"
         d="M 0,0 H 1.589 L 4.85,-5.001 H 4.869 V 0 H 6.067 V -6.733 H 4.546 L 1.217,-1.568 H 1.198 V -6.733 H 0 Z"
         style="fill:#231f20;fill-opacity:1;fill-rule:nonzero;stroke:none"
         transform="matrix(1.3333333,0,0,-1.3333333,99.548,88.758533)" /><path
         id="path24"
         d="M 0,0 H 4.46 V -1.084 H 1.198 V -2.739 H 4.289 V -3.822 H 1.198 V -5.649 H 4.631 V -6.733 H 0 Z"
         style="fill:#231f20;fill-opacity:1;fill-rule:nonzero;stroke:none"
         transform="matrix(1.3333333,0,0,-1.3333333,110.2748,88.758533)" /><path
         id="path25"
         d="M 0,0 C 0.171,0 0.342,0.008 0.513,0.024 0.684,0.04 0.841,0.078 0.984,0.139 1.127,0.199 1.243,0.291 1.331,0.414 1.42,0.538 1.464,0.71 1.464,0.933 1.464,1.129 1.423,1.288 1.34,1.409 1.258,1.528 1.15,1.618 1.018,1.679 0.885,1.739 0.737,1.779 0.575,1.797 0.414,1.816 0.257,1.827 0.104,1.827 H -0.933 V 0 Z m -2.13,2.853 h 2.34 c 0.323,0 0.635,-0.029 0.936,-0.09 C 1.447,2.703 1.715,2.6 1.949,2.454 2.184,2.308 2.371,2.112 2.51,1.864 2.65,1.617 2.719,1.303 2.719,0.924 2.719,0.435 2.584,0.026 2.316,-0.304 2.047,-0.633 1.661,-0.834 1.16,-0.903 L 2.948,-3.88 H 1.503 l -1.561,2.853 H -0.933 V -3.88 H -2.13 Z"
         style="fill:#231f20;fill-opacity:1;fill-rule:nonzero;stroke:none"
         transform="matrix(1.3333333,0,0,-1.3333333,121.49613,92.5628)"
         clip-path="url(#clipPath26)" /><path
         id="path27"
         d="m 0,0 c -0.831,-0.444 -1.76,-0.666 -2.786,-0.666 -0.52,0 -0.997,0.085 -1.432,0.252 -0.434,0.168 -0.808,0.406 -1.122,0.714 -0.314,0.307 -0.559,0.676 -0.737,1.107 -0.177,0.431 -0.266,0.91 -0.266,1.436 0,0.539 0.089,1.029 0.266,1.47 0.178,0.44 0.423,0.816 0.737,1.126 0.314,0.311 0.688,0.55 1.122,0.719 0.435,0.167 0.912,0.251 1.432,0.251 0.513,0 0.995,-0.062 1.446,-0.185 C -0.89,6.1 -0.489,5.88 -0.134,5.562 L -1.018,4.67 C -1.234,4.878 -1.495,5.04 -1.802,5.153 -2.11,5.269 -2.434,5.326 -2.777,5.326 -3.126,5.326 -3.441,5.264 -3.723,5.14 -4.006,5.017 -4.248,4.845 -4.451,4.626 -4.653,4.407 -4.811,4.152 -4.922,3.86 -5.032,3.57 -5.088,3.255 -5.088,2.919 c 0,-0.362 0.056,-0.694 0.166,-0.998 0.111,-0.304 0.269,-0.568 0.471,-0.79 0.203,-0.222 0.445,-0.395 0.728,-0.523 0.282,-0.126 0.597,-0.19 0.946,-0.19 0.305,0 0.591,0.028 0.86,0.086 0.27,0.057 0.51,0.146 0.719,0.267 V 2.358 H -2.577 V 3.442 H 0 Z"
         style="fill:#231f20;fill-opacity:1;fill-rule:nonzero;stroke:none"
         transform="matrix(1.3333333,0,0,-1.3333333,135.25333,97.075733)"
         clip-path="url(#clipPath28)" /><path
         id="path29"
         d="m 103.304,720.399 h 1.199 v 6.733 h -1.199 z"
         style="fill:#231f20;fill-opacity:1;fill-rule:nonzero;stroke:none"
         transform="matrix(1.3333333,0,0,-1.3333333,0,1058.268)" /><path
         id="path30"
         d="M 0,0 H 4.46 V -1.084 H 1.198 V -2.739 H 4.289 V -3.822 H 1.198 V -5.649 H 4.631 V -6.733 H 0 Z"
         style="fill:#231f20;fill-opacity:1;fill-rule:nonzero;stroke:none"
         transform="matrix(1.3333333,0,0,-1.3333333,141.93547,88.758533)" /><path
         id="path31"
         d="M 0,0 C -0.127,0.184 -0.297,0.318 -0.509,0.404 -0.722,0.489 -0.944,0.533 -1.18,0.533 -1.319,0.533 -1.454,0.516 -1.584,0.485 -1.713,0.453 -1.831,0.403 -1.935,0.333 -2.04,0.262 -2.124,0.172 -2.187,0.062 c -0.064,-0.111 -0.095,-0.243 -0.095,-0.395 0,-0.228 0.078,-0.403 0.238,-0.522 0.158,-0.121 0.355,-0.226 0.589,-0.316 0.234,-0.088 0.491,-0.173 0.771,-0.256 0.277,-0.082 0.535,-0.196 0.769,-0.342 0.235,-0.146 0.431,-0.339 0.59,-0.58 0.159,-0.242 0.238,-0.561 0.238,-0.961 0,-0.361 -0.067,-0.677 -0.2,-0.945 C 0.58,-4.526 0.4,-4.749 0.176,-4.926 c -0.225,-0.178 -0.487,-0.311 -0.784,-0.4 -0.299,-0.088 -0.613,-0.133 -0.942,-0.133 -0.418,0 -0.821,0.07 -1.208,0.209 -0.387,0.139 -0.719,0.375 -0.998,0.704 l 0.903,0.875 c 0.146,-0.222 0.338,-0.394 0.575,-0.517 0.238,-0.125 0.49,-0.187 0.756,-0.187 0.139,0 0.279,0.019 0.418,0.058 0.14,0.037 0.267,0.095 0.381,0.171 0.115,0.076 0.206,0.172 0.277,0.289 0.069,0.117 0.104,0.253 0.104,0.406 0,0.245 -0.08,0.436 -0.238,0.569 -0.158,0.134 -0.355,0.246 -0.589,0.337 -0.236,0.093 -0.492,0.179 -0.771,0.263 -0.279,0.082 -0.535,0.194 -0.77,0.337 -0.235,0.143 -0.431,0.333 -0.59,0.571 -0.158,0.237 -0.238,0.556 -0.238,0.956 0,0.349 0.071,0.648 0.214,0.903 0.143,0.253 0.331,0.464 0.561,0.632 0.231,0.168 0.496,0.293 0.795,0.375 0.297,0.083 0.602,0.125 0.912,0.125 0.355,0 0.7,-0.055 1.032,-0.162 C 0.309,1.347 0.608,1.169 0.875,0.922 Z"
         style="fill:#231f20;fill-opacity:1;fill-rule:nonzero;stroke:none"
         transform="matrix(1.3333333,0,0,-1.3333333,159.10293,90.6852)"
         clip-path="url(#clipPath32)" /><path
         id="path33"
         d="m 0,0 -2.53,3.852 h 1.502 L 0.628,1.169 2.301,3.852 H 3.728 L 1.198,0 V -2.881 H 0 Z"
         style="fill:#231f20;fill-opacity:1;fill-rule:nonzero;stroke:none"
         transform="matrix(1.3333333,0,0,-1.3333333,164.80867,93.893333)" /><path
         id="path34"
         d="M 0,0 C -0.127,0.184 -0.297,0.318 -0.509,0.404 -0.722,0.489 -0.944,0.533 -1.18,0.533 -1.319,0.533 -1.454,0.516 -1.584,0.485 -1.713,0.453 -1.831,0.403 -1.935,0.333 -2.04,0.262 -2.124,0.172 -2.187,0.062 c -0.064,-0.111 -0.095,-0.243 -0.095,-0.395 0,-0.228 0.078,-0.403 0.238,-0.522 0.158,-0.121 0.355,-0.226 0.589,-0.316 0.234,-0.088 0.491,-0.173 0.771,-0.256 0.277,-0.082 0.535,-0.196 0.769,-0.342 0.235,-0.146 0.431,-0.339 0.59,-0.58 0.159,-0.242 0.238,-0.561 0.238,-0.961 0,-0.361 -0.067,-0.677 -0.2,-0.945 C 0.58,-4.526 0.4,-4.749 0.176,-4.926 c -0.225,-0.178 -0.487,-0.311 -0.785,-0.4 -0.298,-0.088 -0.612,-0.133 -0.941,-0.133 -0.418,0 -0.821,0.07 -1.208,0.209 -0.387,0.139 -0.719,0.375 -0.998,0.704 l 0.903,0.875 c 0.146,-0.222 0.338,-0.394 0.575,-0.517 0.238,-0.125 0.49,-0.187 0.756,-0.187 0.139,0 0.279,0.019 0.418,0.058 0.14,0.037 0.267,0.095 0.381,0.171 0.114,0.076 0.206,0.172 0.277,0.289 0.069,0.117 0.104,0.253 0.104,0.406 0,0.245 -0.08,0.436 -0.238,0.569 -0.158,0.134 -0.355,0.246 -0.589,0.337 -0.236,0.093 -0.492,0.179 -0.771,0.263 -0.279,0.082 -0.535,0.194 -0.77,0.337 -0.235,0.143 -0.431,0.333 -0.59,0.571 -0.158,0.237 -0.238,0.556 -0.238,0.956 0,0.349 0.071,0.648 0.214,0.903 0.143,0.253 0.331,0.464 0.561,0.632 0.231,0.168 0.496,0.293 0.795,0.375 0.297,0.083 0.602,0.125 0.913,0.125 0.355,0 0.699,-0.055 1.031,-0.162 C 0.309,1.347 0.608,1.169 0.875,0.922 Z"
         style="fill:#231f20;fill-opacity:1;fill-rule:nonzero;stroke:none"
         transform="matrix(1.3333333,0,0,-1.3333333,175.6364,90.6852)"
         clip-path="url(#clipPath35)" /><path
         id="path36"
         d="M 0,0 H -2.063 V 1.084 H 3.262 V 0 H 1.198 V -5.649 H 0 Z"
         style="fill:#231f20;fill-opacity:1;fill-rule:nonzero;stroke:none"
         transform="matrix(1.3333333,0,0,-1.3333333,180.98693,90.204)" /><path
         id="path37"
         d="m 0,0 h -0.894 l -1.34,1.369 h 1.294 z m -2.605,-0.457 h 4.46 V -1.541 H -1.407 V -3.195 H 1.684 V -4.279 H -1.407 V -6.105 H 2.026 V -7.19 h -4.631 z"
         style="fill:#231f20;fill-opacity:1;fill-rule:nonzero;stroke:none"
         transform="matrix(1.3333333,0,0,-1.3333333,190.53387,88.1496)" /><path
         id="path38"
         d="M 0,0 H 1.825 L 3.624,-4.717 5.44,0 H 7.246 V -6.733 H 6.105 v 5.592 H 6.086 L 4.042,-6.733 H 3.204 L 1.16,-1.141 H 1.141 V -6.733 H 0 Z"
         style="fill:#231f20;fill-opacity:1;fill-rule:nonzero;stroke:none"
         transform="matrix(1.3333333,0,0,-1.3333333,195.47933,88.758533)" /><path
         id="path39"
         d="M 0,0 H 4.46 V -1.084 H 1.198 V -2.739 H 4.289 V -3.822 H 1.198 V -5.649 H 4.631 V -6.733 H 0 Z"
         style="fill:#231f20;fill-opacity:1;fill-rule:nonzero;stroke:none"
         transform="matrix(1.3333333,0,0,-1.3333333,207.81693,88.758533)" /><path
         id="path40"
         d="M 0,0 C -0.127,0.184 -0.297,0.318 -0.509,0.404 -0.722,0.489 -0.944,0.533 -1.18,0.533 -1.319,0.533 -1.454,0.516 -1.584,0.485 -1.713,0.453 -1.831,0.403 -1.935,0.333 -2.04,0.262 -2.124,0.172 -2.187,0.062 c -0.064,-0.111 -0.095,-0.243 -0.095,-0.395 0,-0.228 0.078,-0.403 0.238,-0.522 0.158,-0.121 0.355,-0.226 0.589,-0.316 0.234,-0.088 0.491,-0.173 0.771,-0.256 0.278,-0.082 0.535,-0.196 0.769,-0.342 0.235,-0.146 0.431,-0.339 0.59,-0.58 0.159,-0.242 0.238,-0.561 0.238,-0.961 0,-0.361 -0.067,-0.677 -0.2,-0.945 C 0.58,-4.526 0.4,-4.749 0.176,-4.926 c -0.225,-0.178 -0.487,-0.311 -0.784,-0.4 -0.299,-0.088 -0.613,-0.133 -0.942,-0.133 -0.418,0 -0.821,0.07 -1.208,0.209 -0.387,0.139 -0.719,0.375 -0.998,0.704 l 0.903,0.875 c 0.146,-0.222 0.338,-0.394 0.575,-0.517 0.238,-0.125 0.49,-0.187 0.756,-0.187 0.139,0 0.279,0.019 0.418,0.058 0.14,0.037 0.267,0.095 0.381,0.171 0.115,0.076 0.206,0.172 0.277,0.289 0.069,0.117 0.104,0.253 0.104,0.406 0,0.245 -0.08,0.436 -0.238,0.569 -0.158,0.134 -0.355,0.246 -0.589,0.337 -0.236,0.093 -0.492,0.179 -0.771,0.263 -0.279,0.082 -0.535,0.194 -0.77,0.337 -0.235,0.143 -0.431,0.333 -0.59,0.571 -0.158,0.237 -0.238,0.556 -0.238,0.956 0,0.349 0.071,0.648 0.214,0.903 0.143,0.253 0.331,0.464 0.561,0.632 0.231,0.168 0.496,0.293 0.795,0.375 0.297,0.083 0.602,0.125 0.912,0.125 0.355,0 0.7,-0.055 1.032,-0.162 C 0.309,1.347 0.608,1.169 0.875,0.922 Z"
         style="fill:#231f20;fill-opacity:1;fill-rule:nonzero;stroke:none"
         transform="matrix(1.3333333,0,0,-1.3333333,220.5976,90.6852)"
         clip-path="url(#clipPath41)" /></g></g></svg>
